<svg xmlns="http://www.w3.org/2000/svg" viewBox="0 0 128 128">
  <!-- Gradient background -->
  <defs>
    <linearGradient id="bg-gradient" x1="0%" y1="0%" x2="100%" y2="100%">
      <stop offset="0%" stop-color="#6e45e2" />
      <stop offset="100%" stop-color="#ff3e9d" />
    </linearGradient>
    <linearGradient id="glow-gradient" x1="0%" y1="0%" x2="100%" y2="100%">
      <stop offset="0%" stop-color="#42e8e0" />
      <stop offset="100%" stop-color="#4b7cff" />
    </linearGradient>
  </defs>

  <!-- Background -->
  <rect width="128" height="128" rx="20" fill="url(#bg-gradient)" />

  <!-- Futuristic circuitry pattern -->
  <path d="M10 60 L30 60 L40 70 L60 70 L65 65 L65 50" fill="none" stroke="#ff42e8" stroke-width="0.7" stroke-opacity="0.4" />
  <path d="M118 70 L100 70 L90 80 L70 80 L65 75 L65 90" fill="none" stroke="#ff42e8" stroke-width="0.7" stroke-opacity="0.4" />

  <!-- Retro-futuristic tablet/book -->
  <rect x="34" y="30" width="60" height="70" rx="4" fill="#1c1c3c" />
  <rect x="38" y="34" width="52" height="62" rx="2" fill="#000" />

  <!-- Screen with holographic recipe -->
  <rect x="40" y="36" width="48" height="58" rx="1" fill="#071724" />

  <!-- Holographic recipe content -->
  <rect x="44" y="42" width="40" height="3" rx="1" fill="url(#glow-gradient)" opacity="0.8" />
  <rect x="44" y="49" width="40" height="3" rx="1" fill="url(#glow-gradient)" opacity="0.8" />
  <rect x="44" y="56" width="40" height="3" rx="1" fill="url(#glow-gradient)" opacity="0.8" />
  <rect x="44" y="63" width="30" height="3" rx="1" fill="url(#glow-gradient)" opacity="0.8" />
  <rect x="44" y="70" width="25" height="3" rx="1" fill="url(#glow-gradient)" opacity="0.8" />
  <rect x="44" y="77" width="35" height="3" rx="1" fill="url(#glow-gradient)" opacity="0.8" />

  <!-- Futuristic buttons -->
  <rect x="44" y="88" width="12" height="2" rx="1" fill="#42e8e0" />
  <rect x="72" y="88" width="12" height="2" rx="1" fill="#ff3e9d" />

  <!-- Orbiting data particle effect -->
  <circle cx="64" cy="20" r="2" fill="#42e8e0" />
  <circle cx="30" cy="45" r="1.5" fill="#42e8e0" />
  <circle cx="100" cy="50" r="1.5" fill="#42e8e0" />
  <circle cx="90" cy="105" r="2" fill="#42e8e0" />

  <!-- Chrome accents -->
  <path d="M38 36 L38 94 L40 94 L40 36 Z" fill="#42e8e0" opacity="0.6" />
  <path d="M88 36 L88 94 L86 94 L86 36 Z" fill="#ff3e9d" opacity="0.6" />
</svg>
